<mxfile host="65bd71144e">
    <diagram id="5uS7aCU9dQfGryKyOfp_" name="Page-1">
        <mxGraphModel dx="1028" dy="1805" grid="1" gridSize="10" guides="1" tooltips="1" connect="1" arrows="1" fold="1" page="1" pageScale="1" pageWidth="850" pageHeight="1100" math="0" shadow="0">
            <root>
                <mxCell id="0"/>
                <mxCell id="1" parent="0"/>
                <mxCell id="2" value="&lt;ol id=&quot;WRHNEP6PVZ4WKUQT0457&quot; class=&quot;decimal shortanswer&quot; style=&quot;box-sizing: border-box; line-height: 1.8; color: rgb(87, 87, 87); padding: 0px 0px 0px 40px; clear: left; margin: 0px 0px 11px; list-style-type: decimal; font-size: 16px; font-style: normal; font-weight: 400; letter-spacing: normal; text-indent: 0px; text-transform: none; word-spacing: 0px; background-color: rgb(255, 255, 255);&quot;&gt;&lt;li id=&quot;DBMH2668CJ1G7DJ3J127&quot; style=&quot;box-sizing: border-box ; font-family: , &amp;quot;cambria&amp;quot; , &amp;quot;times new roman&amp;quot; , &amp;quot;times&amp;quot; , serif ; line-height: 1.6 ; color: rgb(87 , 87 , 87) ; margin: 0px 0px 10px ; padding: 0px ; list-style: decimal&quot;&gt;&lt;p id=&quot;JGHN7MWD643CCB899394&quot; style=&quot;box-sizing: border-box ; font-family: , &amp;quot;cambria&amp;quot; , &amp;quot;times new roman&amp;quot; , &amp;quot;times&amp;quot; , serif ; line-height: 1.6 ; color: rgb(87 , 87 , 87) ; margin: 0px ; padding: 0px&quot;&gt;In the Game Zone sections of&lt;span&gt;&amp;nbsp;&lt;/span&gt;&lt;a style=&quot;box-sizing: border-box ; color: rgb(0 , 129 , 188) ; text-decoration: none ; background-color: transparent ; overflow-wrap: break-word&quot;&gt;Chapters 6&lt;/a&gt;&lt;span&gt;&amp;nbsp;&lt;/span&gt;and&lt;span&gt;&amp;nbsp;&lt;/span&gt;&lt;a style=&quot;box-sizing: border-box ; color: rgb(0 , 129 , 188) ; text-decoration: none ; background-color: transparent ; overflow-wrap: break-word&quot;&gt;9&lt;/a&gt;, you designed and fine-tuned the logic for the game Hangman, in which the user guesses letters in a series of hidden words. Design the wireframes and storyboard, interactivity diagram, object dictionary, and any necessary scripts for a version of the game in which the user clicks lettered buttons to fill in the secret words. Draw a “hanged” person piece by piece with each missed letter. For example, when the user chooses a correct letter, place it in the appropriate position or positions in the word, but the first time the user chooses a letter that is not in the target word, draw a head for the “hanged” man. The second time the user makes an incorrect guess, add a torso. Continue with arms and legs. If the complete body is drawn before the user has guessed all the letters in the word, display a message indicating that the player has lost the game. If the user completes the word before all the body parts are drawn, display a message that the player has won. Assume that you can use built-in methods named&lt;span&gt;&amp;nbsp;&lt;/span&gt;&lt;span class=&quot;monofont&quot; style=&quot;box-sizing: border-box ; font-family: &amp;quot;andale mono&amp;quot; , &amp;quot;courier new&amp;quot; , &amp;quot;courier&amp;quot; ; font-size: 15.36px&quot;&gt;drawCircle()&lt;/span&gt;&lt;span&gt;&amp;nbsp;&lt;/span&gt;and&lt;span&gt;&amp;nbsp;&lt;/span&gt;&lt;span class=&quot;monofont&quot; style=&quot;box-sizing: border-box ; font-family: &amp;quot;andale mono&amp;quot; , &amp;quot;courier new&amp;quot; , &amp;quot;courier&amp;quot; ; font-size: 15.36px&quot;&gt;drawLine()&lt;/span&gt;. The&lt;span&gt;&amp;nbsp;&lt;/span&gt;&lt;span class=&quot;monofont&quot; style=&quot;box-sizing: border-box ; font-family: &amp;quot;andale mono&amp;quot; , &amp;quot;courier new&amp;quot; , &amp;quot;courier&amp;quot; ; font-size: 15.36px&quot;&gt;drawCircle()&lt;/span&gt;&lt;span&gt;&amp;nbsp;&lt;/span&gt;method requires three parameters—the x- and y-coordinates of the center, and a radius size. The&lt;span&gt;&amp;nbsp;&lt;/span&gt;&lt;span class=&quot;monofont&quot; style=&quot;box-sizing: border-box ; font-family: &amp;quot;andale mono&amp;quot; , &amp;quot;courier new&amp;quot; , &amp;quot;courier&amp;quot; ; font-size: 15.36px&quot;&gt;drawLine()&lt;/span&gt;&lt;span&gt;&amp;nbsp;&lt;/span&gt;method requires four parameters—the x- and y-coordinates of the start of the line, and the x- and y-coordinates of the end of the line.&lt;/p&gt;&lt;/li&gt;&lt;/ol&gt;" style="text;whiteSpace=wrap;html=1;" vertex="1" parent="1">
                    <mxGeometry x="70" y="160" width="550" height="590" as="geometry"/>
                </mxCell>
                <mxCell id="3" style="edgeStyle=none;html=1;entryX=0;entryY=0.5;entryDx=0;entryDy=0;" edge="1" parent="1" source="4" target="5">
                    <mxGeometry relative="1" as="geometry"/>
                </mxCell>
                <mxCell id="4" value="" style="whiteSpace=wrap;html=1;" vertex="1" parent="1">
                    <mxGeometry x="640" y="160" width="440" height="320" as="geometry"/>
                </mxCell>
                <mxCell id="30" value="" style="edgeStyle=none;html=1;" edge="1" parent="1" source="5" target="29">
                    <mxGeometry relative="1" as="geometry"/>
                </mxCell>
                <mxCell id="34" value="" style="edgeStyle=none;html=1;" edge="1" parent="1" source="5" target="33">
                    <mxGeometry relative="1" as="geometry"/>
                </mxCell>
                <mxCell id="5" value="" style="whiteSpace=wrap;html=1;" vertex="1" parent="1">
                    <mxGeometry x="1110" y="160" width="440" height="320" as="geometry"/>
                </mxCell>
                <mxCell id="6" value="Screen 1" style="text;html=1;align=center;verticalAlign=middle;resizable=0;points=[];autosize=1;strokeColor=none;fillColor=none;" vertex="1" parent="1">
                    <mxGeometry x="820" y="490" width="60" height="20" as="geometry"/>
                </mxCell>
                <mxCell id="7" value="Screen 2" style="text;html=1;align=center;verticalAlign=middle;resizable=0;points=[];autosize=1;strokeColor=none;fillColor=none;" vertex="1" parent="1">
                    <mxGeometry x="1300" y="490" width="60" height="20" as="geometry"/>
                </mxCell>
                <mxCell id="8" value="Label&amp;nbsp; &amp;nbsp; &amp;nbsp; &amp;nbsp; &amp;nbsp; &amp;nbsp; &amp;nbsp; &amp;nbsp; &amp;nbsp; &amp;nbsp; &amp;nbsp; &amp;nbsp; &amp;nbsp; &amp;nbsp; &amp;nbsp;welcomeLabel&amp;nbsp; &amp;nbsp; &amp;nbsp; &amp;nbsp; &amp;nbsp; &amp;nbsp; &amp;nbsp; &amp;nbsp; &amp;nbsp; 1&amp;nbsp; &amp;nbsp; &amp;nbsp; &amp;nbsp; &amp;nbsp; &amp;nbsp; &amp;nbsp; &amp;nbsp;none&amp;nbsp; &amp;nbsp; &amp;nbsp; &amp;nbsp; &amp;nbsp; &amp;nbsp; &amp;nbsp; none&lt;br&gt;Label&amp;nbsp; &amp;nbsp; &amp;nbsp; &amp;nbsp; &amp;nbsp; &amp;nbsp; &amp;nbsp; &amp;nbsp; &amp;nbsp; &amp;nbsp; &amp;nbsp; &amp;nbsp; &amp;nbsp; &amp;nbsp; &amp;nbsp; &amp;nbsp;hangManBox&amp;nbsp; &amp;nbsp; &amp;nbsp; &amp;nbsp; &amp;nbsp; &amp;nbsp; &amp;nbsp; &amp;nbsp; &amp;nbsp; 1&amp;nbsp; &amp;nbsp; &amp;nbsp; &amp;nbsp; &amp;nbsp; &amp;nbsp; &amp;nbsp; &amp;nbsp;none&amp;nbsp; &amp;nbsp; &amp;nbsp; &amp;nbsp; &amp;nbsp; &amp;nbsp; &amp;nbsp; drawMan()&lt;br&gt;Label&amp;nbsp; &amp;nbsp; &amp;nbsp; &amp;nbsp; &amp;nbsp; &amp;nbsp; &amp;nbsp; &amp;nbsp; &amp;nbsp; &amp;nbsp; &amp;nbsp; &amp;nbsp; &amp;nbsp; &amp;nbsp; &amp;nbsp; &amp;nbsp; &amp;nbsp; &amp;nbsp; &amp;nbsp; wordBox&amp;nbsp; &amp;nbsp; &amp;nbsp; &amp;nbsp; &amp;nbsp; &amp;nbsp; &amp;nbsp; &amp;nbsp; &amp;nbsp; 1&amp;nbsp; &amp;nbsp; &amp;nbsp; &amp;nbsp; &amp;nbsp; &amp;nbsp; &amp;nbsp; &amp;nbsp;none&amp;nbsp; &amp;nbsp; &amp;nbsp; &amp;nbsp; &amp;nbsp; &amp;nbsp; &amp;nbsp; displayGuess()&lt;br&gt;Label&amp;nbsp; &amp;nbsp; &amp;nbsp; &amp;nbsp; &amp;nbsp; &amp;nbsp; &amp;nbsp; &amp;nbsp; &amp;nbsp; &amp;nbsp; &amp;nbsp; &amp;nbsp; &amp;nbsp; &amp;nbsp; &amp;nbsp; &amp;nbsp; &amp;nbsp; &amp;nbsp; &amp;nbsp; &amp;nbsp; textBox&amp;nbsp; &amp;nbsp; &amp;nbsp; &amp;nbsp; &amp;nbsp; &amp;nbsp; &amp;nbsp; &amp;nbsp; &amp;nbsp; 1&amp;nbsp; &amp;nbsp; &amp;nbsp; &amp;nbsp; &amp;nbsp; &amp;nbsp; &amp;nbsp; &amp;nbsp;letter&amp;nbsp; &amp;nbsp; &amp;nbsp; &amp;nbsp; &amp;nbsp; &amp;nbsp; &amp;nbsp; setText()&lt;br&gt;Label&amp;nbsp; &amp;nbsp; &amp;nbsp; &amp;nbsp; &amp;nbsp; &amp;nbsp; &amp;nbsp; &amp;nbsp; &amp;nbsp; &amp;nbsp; &amp;nbsp; &amp;nbsp; &amp;nbsp; &amp;nbsp; &amp;nbsp; &amp;nbsp; &amp;nbsp; &amp;nbsp;guessLabel&amp;nbsp; &amp;nbsp; &amp;nbsp; &amp;nbsp; &amp;nbsp; &amp;nbsp; &amp;nbsp; &amp;nbsp; &amp;nbsp;1&amp;nbsp; &amp;nbsp; &amp;nbsp; &amp;nbsp; &amp;nbsp; &amp;nbsp; &amp;nbsp; &amp;nbsp;none&amp;nbsp; &amp;nbsp; &amp;nbsp; &amp;nbsp; &amp;nbsp; &amp;nbsp; &amp;nbsp; guess()&lt;br&gt;Label&amp;nbsp; &amp;nbsp; &amp;nbsp; &amp;nbsp; &amp;nbsp; &amp;nbsp; &amp;nbsp; &amp;nbsp; &amp;nbsp; &amp;nbsp; &amp;nbsp; &amp;nbsp; &amp;nbsp; &amp;nbsp; &amp;nbsp; &amp;nbsp; &amp;nbsp; guessLabel&amp;nbsp; &amp;nbsp; &amp;nbsp; &amp;nbsp; &amp;nbsp; &amp;nbsp; &amp;nbsp; &amp;nbsp; &amp;nbsp;2,4&amp;nbsp; &amp;nbsp; &amp;nbsp; &amp;nbsp; &amp;nbsp; &amp;nbsp; &amp;nbsp;none&lt;br&gt;Label&amp;nbsp; &amp;nbsp; &amp;nbsp; &amp;nbsp; &amp;nbsp; &amp;nbsp; &amp;nbsp; &amp;nbsp; &amp;nbsp; &amp;nbsp; &amp;nbsp; &amp;nbsp; &amp;nbsp; &amp;nbsp; &amp;nbsp; &amp;nbsp; &amp;nbsp;correctLabel&amp;nbsp; &amp;nbsp; &amp;nbsp; &amp;nbsp; &amp;nbsp; &amp;nbsp; &amp;nbsp; &amp;nbsp; &amp;nbsp;2,4&amp;nbsp; &amp;nbsp; &amp;nbsp; &amp;nbsp; &amp;nbsp; &amp;nbsp; &amp;nbsp;none&amp;nbsp; &amp;nbsp; &amp;nbsp; &amp;nbsp; &amp;nbsp; &amp;nbsp; &amp;nbsp;isCorrect()&lt;br&gt;Label&amp;nbsp; &amp;nbsp; &amp;nbsp; &amp;nbsp; &amp;nbsp; &amp;nbsp; &amp;nbsp; &amp;nbsp; &amp;nbsp; &amp;nbsp; &amp;nbsp; &amp;nbsp; &amp;nbsp; &amp;nbsp; &amp;nbsp; &amp;nbsp;winLoseLabel&amp;nbsp; &amp;nbsp; &amp;nbsp; &amp;nbsp; &amp;nbsp; &amp;nbsp; &amp;nbsp; &amp;nbsp; &amp;nbsp;3,5&amp;nbsp; &amp;nbsp; &amp;nbsp; &amp;nbsp; &amp;nbsp; &amp;nbsp; &amp;nbsp;none&amp;nbsp; &amp;nbsp; &amp;nbsp; &amp;nbsp; &amp;nbsp; &amp;nbsp; &amp;nbsp;winLose()&lt;br&gt;" style="whiteSpace=wrap;html=1;align=left;" vertex="1" parent="1">
                    <mxGeometry x="640" y="570" width="500" height="320" as="geometry"/>
                </mxCell>
                <mxCell id="9" value="Object&amp;nbsp; &amp;nbsp; &amp;nbsp; &amp;nbsp; &amp;nbsp; &amp;nbsp; &amp;nbsp; &amp;nbsp; &amp;nbsp; &amp;nbsp; &amp;nbsp; &amp;nbsp;Name&amp;nbsp; &amp;nbsp; &amp;nbsp; &amp;nbsp; &amp;nbsp; &amp;nbsp; &amp;nbsp; &amp;nbsp; &amp;nbsp; &amp;nbsp; &amp;nbsp; &amp;nbsp; &amp;nbsp; &amp;nbsp; &amp;nbsp; Screen&amp;nbsp; &amp;nbsp; &amp;nbsp; &amp;nbsp; &amp;nbsp; &amp;nbsp; Variables&amp;nbsp; &amp;nbsp; &amp;nbsp; &amp;nbsp; Script" style="whiteSpace=wrap;html=1;align=left;" vertex="1" parent="1">
                    <mxGeometry x="640" y="530" width="500" height="40" as="geometry"/>
                </mxCell>
                <mxCell id="12" value="Guess" style="whiteSpace=wrap;html=1;" vertex="1" parent="1">
                    <mxGeometry x="920" y="400" width="120" height="60" as="geometry"/>
                </mxCell>
                <mxCell id="13" value="Welcome to Hangman Game!" style="whiteSpace=wrap;html=1;" vertex="1" parent="1">
                    <mxGeometry x="780" y="170" width="160" height="60" as="geometry"/>
                </mxCell>
                <mxCell id="15" value="Your guess: E" style="whiteSpace=wrap;html=1;" vertex="1" parent="1">
                    <mxGeometry x="1170" y="230" width="120" height="60" as="geometry"/>
                </mxCell>
                <mxCell id="16" value="Incorrect!" style="whiteSpace=wrap;html=1;" vertex="1" parent="1">
                    <mxGeometry x="1170" y="315" width="120" height="60" as="geometry"/>
                </mxCell>
                <mxCell id="17" value="Object Dictionary" style="text;html=1;align=center;verticalAlign=middle;resizable=0;points=[];autosize=1;strokeColor=none;fillColor=none;" vertex="1" parent="1">
                    <mxGeometry x="835" y="890" width="110" height="20" as="geometry"/>
                </mxCell>
                <mxCell id="18" value="_ _ _ _ _ _ _" style="whiteSpace=wrap;html=1;" vertex="1" parent="1">
                    <mxGeometry x="800" y="240" width="120" height="60" as="geometry"/>
                </mxCell>
                <mxCell id="24" value="" style="whiteSpace=wrap;html=1;" vertex="1" parent="1">
                    <mxGeometry x="650" y="200" width="120" height="180" as="geometry"/>
                </mxCell>
                <mxCell id="19" value="" style="endArrow=none;html=1;" edge="1" parent="1">
                    <mxGeometry width="50" height="50" relative="1" as="geometry">
                        <mxPoint x="670" y="374" as="sourcePoint"/>
                        <mxPoint x="670" y="234" as="targetPoint"/>
                    </mxGeometry>
                </mxCell>
                <mxCell id="20" value="" style="endArrow=none;html=1;" edge="1" parent="1">
                    <mxGeometry width="50" height="50" relative="1" as="geometry">
                        <mxPoint x="670" y="374" as="sourcePoint"/>
                        <mxPoint x="730" y="374" as="targetPoint"/>
                    </mxGeometry>
                </mxCell>
                <mxCell id="21" value="" style="endArrow=none;html=1;" edge="1" parent="1">
                    <mxGeometry width="50" height="50" relative="1" as="geometry">
                        <mxPoint x="670" y="234" as="sourcePoint"/>
                        <mxPoint x="730" y="234" as="targetPoint"/>
                    </mxGeometry>
                </mxCell>
                <mxCell id="22" value="" style="endArrow=none;html=1;" edge="1" parent="1">
                    <mxGeometry width="50" height="50" relative="1" as="geometry">
                        <mxPoint x="730" y="234" as="sourcePoint"/>
                        <mxPoint x="730" y="254" as="targetPoint"/>
                    </mxGeometry>
                </mxCell>
                <mxCell id="23" value="" style="shape=umlActor;verticalLabelPosition=bottom;verticalAlign=top;html=1;outlineConnect=0;" vertex="1" parent="1">
                    <mxGeometry x="710" y="254" width="40" height="60" as="geometry"/>
                </mxCell>
                <mxCell id="28" value="Enter Letter: __" style="whiteSpace=wrap;html=1;" vertex="1" parent="1">
                    <mxGeometry x="790" y="320" width="120" height="60" as="geometry"/>
                </mxCell>
                <mxCell id="29" value="" style="whiteSpace=wrap;html=1;" vertex="1" parent="1">
                    <mxGeometry x="1630" y="160" width="440" height="320" as="geometry"/>
                </mxCell>
                <mxCell id="31" value="You lose!" style="whiteSpace=wrap;html=1;" vertex="1" parent="1">
                    <mxGeometry x="1790" y="290" width="120" height="60" as="geometry"/>
                </mxCell>
                <mxCell id="32" value="Screen 3" style="text;html=1;align=center;verticalAlign=middle;resizable=0;points=[];autosize=1;strokeColor=none;fillColor=none;" vertex="1" parent="1">
                    <mxGeometry x="1850" y="480" width="60" height="20" as="geometry"/>
                </mxCell>
                <mxCell id="71" value="" style="edgeStyle=none;html=1;" edge="1" parent="1" source="33" target="70">
                    <mxGeometry relative="1" as="geometry"/>
                </mxCell>
                <mxCell id="33" value="" style="whiteSpace=wrap;html=1;" vertex="1" parent="1">
                    <mxGeometry x="1110" y="-240" width="440" height="320" as="geometry"/>
                </mxCell>
                <mxCell id="36" value="Your guess: F" style="whiteSpace=wrap;html=1;" vertex="1" parent="1">
                    <mxGeometry x="1155" y="-190" width="120" height="60" as="geometry"/>
                </mxCell>
                <mxCell id="37" value="Correct!" style="whiteSpace=wrap;html=1;" vertex="1" parent="1">
                    <mxGeometry x="1155" y="-105" width="120" height="60" as="geometry"/>
                </mxCell>
                <mxCell id="38" value="Screen 4" style="text;html=1;align=center;verticalAlign=middle;resizable=0;points=[];autosize=1;strokeColor=none;fillColor=none;" vertex="1" parent="1">
                    <mxGeometry x="1280" y="-270" width="60" height="20" as="geometry"/>
                </mxCell>
                <mxCell id="39" value="" style="edgeStyle=none;html=1;" edge="1" parent="1" source="40" target="43">
                    <mxGeometry relative="1" as="geometry"/>
                </mxCell>
                <mxCell id="40" value="Screen 1" style="whiteSpace=wrap;html=1;" vertex="1" parent="1">
                    <mxGeometry x="1210" y="540" width="120" height="60" as="geometry"/>
                </mxCell>
                <mxCell id="41" value="" style="edgeStyle=none;html=1;" edge="1" parent="1" source="43" target="44">
                    <mxGeometry relative="1" as="geometry"/>
                </mxCell>
                <mxCell id="42" value="" style="edgeStyle=none;html=1;" edge="1" parent="1" source="43" target="46">
                    <mxGeometry relative="1" as="geometry"/>
                </mxCell>
                <mxCell id="43" value="Screen 2" style="whiteSpace=wrap;html=1;" vertex="1" parent="1">
                    <mxGeometry x="1410" y="540" width="120" height="60" as="geometry"/>
                </mxCell>
                <mxCell id="44" value="Screen 3" style="whiteSpace=wrap;html=1;" vertex="1" parent="1">
                    <mxGeometry x="1610" y="540" width="120" height="60" as="geometry"/>
                </mxCell>
                <mxCell id="45" value="" style="edgeStyle=none;html=1;" edge="1" parent="1" source="46">
                    <mxGeometry relative="1" as="geometry">
                        <mxPoint x="1610" y="710" as="targetPoint"/>
                    </mxGeometry>
                </mxCell>
                <mxCell id="46" value="Screen 4" style="whiteSpace=wrap;html=1;" vertex="1" parent="1">
                    <mxGeometry x="1410" y="680" width="120" height="60" as="geometry"/>
                </mxCell>
                <mxCell id="70" value="" style="whiteSpace=wrap;html=1;" vertex="1" parent="1">
                    <mxGeometry x="590" y="-240" width="440" height="320" as="geometry"/>
                </mxCell>
                <mxCell id="72" value="You win!" style="whiteSpace=wrap;html=1;" vertex="1" parent="1">
                    <mxGeometry x="790" y="-105" width="120" height="60" as="geometry"/>
                </mxCell>
                <mxCell id="73" value="Screen 5" style="text;html=1;align=center;verticalAlign=middle;resizable=0;points=[];autosize=1;strokeColor=none;fillColor=none;" vertex="1" parent="1">
                    <mxGeometry x="820" y="-260" width="60" height="20" as="geometry"/>
                </mxCell>
                <mxCell id="74" value="" style="edgeStyle=none;html=1;" edge="1" parent="1" source="75" target="78">
                    <mxGeometry relative="1" as="geometry"/>
                </mxCell>
                <mxCell id="75" value="Screen 1" style="whiteSpace=wrap;html=1;" vertex="1" parent="1">
                    <mxGeometry x="1610" y="680" width="120" height="60" as="geometry"/>
                </mxCell>
                <mxCell id="76" value="" style="edgeStyle=none;html=1;" edge="1" parent="1" source="78" target="79">
                    <mxGeometry relative="1" as="geometry"/>
                </mxCell>
                <mxCell id="77" value="" style="edgeStyle=none;html=1;" edge="1" parent="1" source="78" target="81">
                    <mxGeometry relative="1" as="geometry"/>
                </mxCell>
                <mxCell id="78" value="Screen 2" style="whiteSpace=wrap;html=1;" vertex="1" parent="1">
                    <mxGeometry x="1810" y="680" width="120" height="60" as="geometry"/>
                </mxCell>
                <mxCell id="79" value="Screen 3" style="whiteSpace=wrap;html=1;" vertex="1" parent="1">
                    <mxGeometry x="2010" y="680" width="120" height="60" as="geometry"/>
                </mxCell>
                <mxCell id="80" value="" style="edgeStyle=none;html=1;" edge="1" parent="1" source="81">
                    <mxGeometry relative="1" as="geometry">
                        <mxPoint x="2010" y="850" as="targetPoint"/>
                    </mxGeometry>
                </mxCell>
                <mxCell id="81" value="Screen 4" style="whiteSpace=wrap;html=1;" vertex="1" parent="1">
                    <mxGeometry x="1810" y="820" width="120" height="60" as="geometry"/>
                </mxCell>
                <mxCell id="82" value="" style="edgeStyle=none;html=1;" edge="1" parent="1" source="83" target="86">
                    <mxGeometry relative="1" as="geometry"/>
                </mxCell>
                <mxCell id="83" value="Screen 1" style="whiteSpace=wrap;html=1;" vertex="1" parent="1">
                    <mxGeometry x="2010" y="820" width="120" height="60" as="geometry"/>
                </mxCell>
                <mxCell id="84" value="" style="edgeStyle=none;html=1;" edge="1" parent="1" source="86" target="87">
                    <mxGeometry relative="1" as="geometry"/>
                </mxCell>
                <mxCell id="85" value="" style="edgeStyle=none;html=1;" edge="1" parent="1" source="86" target="89">
                    <mxGeometry relative="1" as="geometry"/>
                </mxCell>
                <mxCell id="86" value="Screen 2" style="whiteSpace=wrap;html=1;" vertex="1" parent="1">
                    <mxGeometry x="2210" y="820" width="120" height="60" as="geometry"/>
                </mxCell>
                <mxCell id="87" value="Screen 3" style="whiteSpace=wrap;html=1;" vertex="1" parent="1">
                    <mxGeometry x="2410" y="820" width="120" height="60" as="geometry"/>
                </mxCell>
                <mxCell id="88" value="" style="edgeStyle=none;html=1;" edge="1" parent="1" source="89">
                    <mxGeometry relative="1" as="geometry">
                        <mxPoint x="2410" y="990" as="targetPoint"/>
                    </mxGeometry>
                </mxCell>
                <mxCell id="89" value="Screen 4" style="whiteSpace=wrap;html=1;" vertex="1" parent="1">
                    <mxGeometry x="2210" y="960" width="120" height="60" as="geometry"/>
                </mxCell>
                <mxCell id="90" value="" style="edgeStyle=none;html=1;" edge="1" parent="1" source="91" target="94">
                    <mxGeometry relative="1" as="geometry"/>
                </mxCell>
                <mxCell id="91" value="Screen 1" style="whiteSpace=wrap;html=1;" vertex="1" parent="1">
                    <mxGeometry x="2410" y="960" width="120" height="60" as="geometry"/>
                </mxCell>
                <mxCell id="92" value="" style="edgeStyle=none;html=1;" edge="1" parent="1" source="94" target="95">
                    <mxGeometry relative="1" as="geometry"/>
                </mxCell>
                <mxCell id="93" value="" style="edgeStyle=none;html=1;" edge="1" parent="1" source="94" target="97">
                    <mxGeometry relative="1" as="geometry"/>
                </mxCell>
                <mxCell id="94" value="Screen 2" style="whiteSpace=wrap;html=1;" vertex="1" parent="1">
                    <mxGeometry x="2610" y="960" width="120" height="60" as="geometry"/>
                </mxCell>
                <mxCell id="95" value="Screen 3" style="whiteSpace=wrap;html=1;" vertex="1" parent="1">
                    <mxGeometry x="2810" y="960" width="120" height="60" as="geometry"/>
                </mxCell>
                <mxCell id="96" value="" style="edgeStyle=none;html=1;" edge="1" parent="1" source="97">
                    <mxGeometry relative="1" as="geometry">
                        <mxPoint x="2810" y="1130" as="targetPoint"/>
                    </mxGeometry>
                </mxCell>
                <mxCell id="97" value="Screen 4" style="whiteSpace=wrap;html=1;" vertex="1" parent="1">
                    <mxGeometry x="2610" y="1100" width="120" height="60" as="geometry"/>
                </mxCell>
                <mxCell id="98" value="" style="edgeStyle=none;html=1;" edge="1" parent="1" source="99" target="102">
                    <mxGeometry relative="1" as="geometry"/>
                </mxCell>
                <mxCell id="99" value="Screen 1" style="whiteSpace=wrap;html=1;" vertex="1" parent="1">
                    <mxGeometry x="2810" y="1100" width="120" height="60" as="geometry"/>
                </mxCell>
                <mxCell id="100" value="" style="edgeStyle=none;html=1;" edge="1" parent="1" source="102" target="103">
                    <mxGeometry relative="1" as="geometry"/>
                </mxCell>
                <mxCell id="101" value="" style="edgeStyle=none;html=1;" edge="1" parent="1" source="102" target="105">
                    <mxGeometry relative="1" as="geometry"/>
                </mxCell>
                <mxCell id="102" value="Screen 2" style="whiteSpace=wrap;html=1;" vertex="1" parent="1">
                    <mxGeometry x="3010" y="1100" width="120" height="60" as="geometry"/>
                </mxCell>
                <mxCell id="103" value="Screen 3" style="whiteSpace=wrap;html=1;" vertex="1" parent="1">
                    <mxGeometry x="3210" y="1100" width="120" height="60" as="geometry"/>
                </mxCell>
                <mxCell id="104" value="" style="edgeStyle=none;html=1;" edge="1" parent="1" source="105">
                    <mxGeometry relative="1" as="geometry">
                        <mxPoint x="3210" y="1270" as="targetPoint"/>
                    </mxGeometry>
                </mxCell>
                <mxCell id="105" value="Screen 4" style="whiteSpace=wrap;html=1;" vertex="1" parent="1">
                    <mxGeometry x="3010" y="1240" width="120" height="60" as="geometry"/>
                </mxCell>
                <mxCell id="106" value="" style="edgeStyle=none;html=1;" edge="1" parent="1" source="107" target="110">
                    <mxGeometry relative="1" as="geometry"/>
                </mxCell>
                <mxCell id="107" value="Screen 1" style="whiteSpace=wrap;html=1;" vertex="1" parent="1">
                    <mxGeometry x="3210" y="1240" width="120" height="60" as="geometry"/>
                </mxCell>
                <mxCell id="108" value="" style="edgeStyle=none;html=1;" edge="1" parent="1" source="110" target="111">
                    <mxGeometry relative="1" as="geometry"/>
                </mxCell>
                <mxCell id="109" value="" style="edgeStyle=none;html=1;" edge="1" parent="1" source="110" target="113">
                    <mxGeometry relative="1" as="geometry"/>
                </mxCell>
                <mxCell id="110" value="Screen 2" style="whiteSpace=wrap;html=1;" vertex="1" parent="1">
                    <mxGeometry x="3410" y="1240" width="120" height="60" as="geometry"/>
                </mxCell>
                <mxCell id="111" value="Screen 3" style="whiteSpace=wrap;html=1;" vertex="1" parent="1">
                    <mxGeometry x="3610" y="1240" width="120" height="60" as="geometry"/>
                </mxCell>
                <mxCell id="112" value="" style="edgeStyle=none;html=1;" edge="1" parent="1" source="113">
                    <mxGeometry relative="1" as="geometry">
                        <mxPoint x="3610" y="1410" as="targetPoint"/>
                    </mxGeometry>
                </mxCell>
                <mxCell id="113" value="Screen 4" style="whiteSpace=wrap;html=1;" vertex="1" parent="1">
                    <mxGeometry x="3410" y="1380" width="120" height="60" as="geometry"/>
                </mxCell>
                <mxCell id="114" value="Screen 5" style="whiteSpace=wrap;html=1;" vertex="1" parent="1">
                    <mxGeometry x="3610" y="1380" width="120" height="60" as="geometry"/>
                </mxCell>
            </root>
        </mxGraphModel>
    </diagram>
</mxfile>